<?xml version="1.0" encoding="utf-8"?>
<!-- Generator: Adobe Illustrator 26.0.1, SVG Export Plug-In . SVG Version: 6.00 Build 0)  -->
<svg version="1.1" id="Layer_1" xmlns="http://www.w3.org/2000/svg" xmlns:xlink="http://www.w3.org/1999/xlink" x="0px" y="0px"
	 viewBox="0 0 500 500" style="enable-background:new 0 0 500 500;" xml:space="preserve">
<style type="text/css">
	.st0{fill:#FFFFFF;}
</style>
<g transform="translate(0.000000,500.000000) scale(0.100000,-0.100000)">
	<path class="st0" d="M1190,2965V1710h324h324l4,55l3,55l-265,2l-265,3l-3,1138l-2,1137h1190h1190l-2-1137l-3-1138l-262-3l-263-2
		v-55v-55h325h325v1255v1255H2500H1190V2965z"/>
	<path class="st0" d="M1565,3858c-3-7-4-413-3-903l3-890l105-3c99-3,106-2,124,20c10,13,68,80,129,150l111,128h467h467l49-57
		c26-32,58-69,71-83c12-14,48-55,80-92l57-68h108h107l-2,903l-3,902l-151,3l-150,3l-45-48c-25-27-52-58-61-71c-8-12-31-39-49-60
		c-19-20-106-118-194-217s-162-182-165-185s-27-31-53-62c-27-32-52-58-57-58s-24,17-43,38c-19,20-63,69-98,107
		c-35,39-107,118-160,175c-52,58-146,161-209,230c-62,69-120,131-128,138c-11,8-59,12-159,12C1607,3870,1568,3867,1565,3858z
		 M1814,3668c37-44,100-114,170-188c39-41,87-93,105-115s61-69,95-104c102-107,196-215,196-227c0-6-7-18-17-25c-9-8-38-43-65-79
		s-73-90-101-120c-29-31-81-89-116-130s-103-118-151-170s-100-111-116-130s-41-48-56-65l-28-30v696c0,383,3,699,7,702
		C1751,3698,1796,3689,1814,3668z M3270,3320v-370h-287h-287l-33,32c-32,31-41,53-25,60c4,2,25,26,47,53c41,52,99,118,195,220
		c31,33,76,85,100,115c25,30,47,57,50,60s18,21,34,40c15,19,55,63,88,98c47,48,66,62,89,62h29V3320z M2603,2776c34-38,81-91,105-117
		c82-91,102-114,102-121c0-5-137-8-305-8s-305,4-305,8c0,5,28,40,63,78c34,38,82,94,107,124s65,77,90,103l45,48l18-23
		C2533,2855,2569,2814,2603,2776z M3270,2540c0-139-4-240-9-240s-11,4-13,9c-1,5-33,42-69,82c-36,41-108,121-159,179
		s-112,126-136,153c-24,26-44,50-44,52c0,3,97,5,215,5h215V2540z"/>
	<path class="st0" d="M2010,1580v-230h45h44l3,148l3,147l24-45c13-25,37-70,54-100c16-30,41-75,54-100c14-25,26-46,28-48
		c3-3,40,60,105,183c23,44,47,84,51,90c5,5,9-52,9-133v-142h45h45v230v230h-58h-57l-68-136c-38-75-70-135-71-133c-2,2-34,64-71,137
		l-68,132h-58h-59V1580z"/>
	<path class="st0" d="M2610,1806c0-5,76-129,133-218c36-55,37-60,37-148v-90h45h45v91v90l64,98c35,54,75,116,90,139l26,42h-58h-59
		l-49-80c-27-44-53-79-59-80c-10,0-77,106-91,143c-5,13-18,17-65,17C2637,1810,2610,1808,2610,1806z"/>
	<path class="st0" d="M2558,1236c-62-22-88-60-88-128c0-31,6-51,22-67c21-24,117-71,143-71c8,0,25-5,39-12c48-21,46-77-4-98
		c-40-17-85-4-114,32c-23,30-24,30-64,17l-40-14l13-32c20-48,85-86,156-91c50-4,65,0,104,22c53,31,75,69,75,127c0,69-33,103-136,135
		c-90,29-113,49-95,83c21,38,86,37,128-2c20-17,26-18,53-7c39,16,38,31-4,73C2699,1250,2631,1262,2558,1236z"/>
	<path class="st0" d="M966,1193c-30-81-78-206-91-238c-30-69-65-159-65-167c0-4,24-8,54-8h53l17,45l18,45h88h89l20-45
		c20-45,20-45,71-45c44,0,51,2,46,18c-3,9-44,111-90,227l-84,210l-54,3l-55,3L966,1193z M1073,1023l26-63h-55c-40,0-54,4-52,13
		c16,59,43,126,48,120C1044,1088,1059,1057,1073,1023z"/>
	<path class="st0" d="M1360,1010V780h51h50l-2,83l-2,82h28c26,0,34-9,75-80l46-80l52-3c29-2,52,0,52,3s-20,41-45,85s-45,83-45,88
		s11,15,25,22c57,31,71,136,25,199c-33,48-77,61-201,61h-109V1010z M1569,1145c45-23,54-62,21-95c-15-15-33-20-77-20h-58l2,58
		c0,31,2,60,2,65C1461,1166,1540,1161,1569,1145z"/>
	<path class="st0" d="M1790,1200v-40h65h65V970V780h50h50v190v190h70h70v40v40h-185h-185V1200z"/>
	<path class="st0" d="M2260,1010V780h45h45v230v230h-45h-45V1010z"/>
	<path class="st0" d="M2870,1200v-40h70h70V970V780h45h45l2,188l3,187l68,3l67,3v39v40h-185h-185V1200z"/>
	<path class="st0" d="M3340,1011V780h50h50v86v85l27-3c23-2,35-17,73-85l45-83h52c53,0,59,8,33,45c-4,6-22,37-39,70l-33,59l26,19
		c78,56,73,181-8,241c-24,18-45,21-152,24l-124,4V1011z M3567,1137c20-19,21-70,3-91c-9-11-30-16-71-16h-59v66v66l56-4
		C3528,1155,3558,1147,3567,1137z"/>
	<path class="st0" d="M3773,1188c19-29,57-89,85-133l51-80l3-95l3-95l48-3l47-3v94c0,104-2,99,119,286c22,35,41,68,41,73
		c0,4-24,8-54,8h-55l-47-80c-26-44-51-80-55-80s-28,36-54,80l-47,80h-59h-59L3773,1188z"/>
</g>
</svg>
